<svg id="图层_1" data-name="图层 1" xmlns="http://www.w3.org/2000/svg" viewBox="0 0 255.11 289.32"><defs><style>.cls-1{fill:#264de4;}.cls-2{fill:#2965f1;}.cls-3{fill:#ebebeb;}.cls-4{fill:#fff;}</style></defs><title>css3-2</title><path class="cls-1" d="M127.84,360.09,23.66,331.17.45,70.77H255.55L232.31,331.13l-104.47,29Z" transform="translate(-0.45 -70.77)"/><path class="cls-2" d="M212.42,314.55,232.28,92.06H128V338l84.42-23.4Z" transform="translate(-0.45 -70.77)"/><path class="cls-3" d="M53.67,188.64l2.86,31.94H128V188.64Z" transform="translate(-0.45 -70.77)"/><path class="cls-3" d="M47.92,124l2.9,31.94H128V124Z" transform="translate(-0.45 -70.77)"/><path class="cls-3" d="M128,271.58l-.14,0L92.29,262,90,236.54H58l4.47,50.15,65.42,18.16.15,0V271.58Z" transform="translate(-0.45 -70.77)"/><path class="cls-4" d="M202.13,188.64,207.89,124h-80v31.94h45L170,188.64h-42.1v31.94h39.33L163.51,262l-35.62,9.61v33.23l65.47-18.15.48-5.4,7.5-84.08.78-8.58Z" transform="translate(-0.45 -70.77)"/></svg>