<svg xmlns="http://www.w3.org/2000/svg" viewBox="0 0 255.11 289.32"><defs><style>.cls-1{fill:#e44d26;}.cls-2{fill:#f16529;}.cls-3{fill:#ebebeb;}.cls-4{fill:#fff;}</style></defs><title>资源 1</title><g id="图层_2" data-name="图层 2"><g id="图层_1-2" data-name="图层 1"><path class="cls-1" d="M255.11,0,231.87,260.36l-104.47,29L23.22,260.4,0,0Z"/><path class="cls-2" d="M127.55,267.18,212,243.78,231.83,21.29H127.55V267.18Z"/><path class="cls-3" d="M82.38,85.17h45.18V53.23H47.47l.76,8.57,7.85,88h71.47V117.87H85.29l-2.92-32.7Z"/><path class="cls-3" d="M89.57,165.78H57.51L62,215.92l65.42,18.16.15,0V200.81l-.14,0-35.57-9.6-2.27-25.47Z"/><path class="cls-4" d="M127.44,149.81h39.33l-3.71,41.42-35.62,9.61v33.23l65.47-18.15.48-5.4,7.5-84.08.78-8.58H127.44v31.94Z"/><path class="cls-4" d="M127.44,85.09v.08h77.14l.64-7.18,1.46-16.19.76-8.57h-80V85.09Z"/></g></g></svg>