<svg xmlns="http://www.w3.org/2000/svg" viewBox="0 0 80 80"><defs><style>.cls-1{fill:#ed163a;}.cls-2{fill:#d51c2f;}.cls-3{fill:#f5f5f5;}</style></defs><title>资源 1</title><g id="图层_2" data-name="图层 2"><g id="svg2"><g id="g10"><g id="g12"><path id="path88" class="cls-1" d="M80,40A40,40,0,1,1,40,0,40,40,0,0,1,80,40"/><path id="path90" class="cls-2" d="M60.65,20.71,47,20.58l-8-8-9.34,6.2,1.61,1.61-3.78,0L14.74,42h-5l3.16,3.16L9.68,50.53,39.14,80H40A40,40,0,0,0,80,40.06L60.65,20.71"/><path id="path92" class="cls-3" d="M20.29,42.92a19.71,19.71,0,0,1,39.41,0Zm44.3.91V42h5.7a30.19,30.19,0,0,0-8.23-19.87L57.81,26.4l-1.29-1.29,4.26-4.26a30.18,30.18,0,0,0-19.87-8.23v5.7H39.09v-5.7a30.19,30.19,0,0,0-19.87,8.23l4.26,4.26L22.19,26.4l-4.26-4.26A30.2,30.2,0,0,0,9.71,42h5.7v1.82H9.68V50.5H70.32V43.83H64.59"/></g></g></g></g></svg>