<svg style="display: inline-block; position: absolute; top: 0; left: 0;" viewBox="-50 0 600 120" preserveAspectRatio="xMinYMin meet">
  <a xlink:href="https://developer.mozilla.org/en-US/docs/Web/API/EventTarget" target="_top">
    <rect x="1" y="1" width="110" height="50" fill="#fff" stroke="#D4DDE4" stroke-width="2px"></rect>
    <text x="56" y="30" font-size="12px" font-family="Consolas,Monaco,Andale Mono,monospace" fill="#4D4E53" text-anchor="middle" alignment-baseline="middle">EventTarget</text>
  </a>
  <polyline points="111,25  121,20  121,30  111,25" stroke="#D4DDE4" fill="none"></polyline>
  <line x1="121" y1="25" x2="151" y2="25" stroke="#D4DDE4"></line>
  <a xlink:href="https://developer.mozilla.org/en-US/docs/Web/API/Node" target="_top">
    <rect x="151" y="1" width="75" height="50" fill="#fff" stroke="#D4DDE4" stroke-width="2px"></rect>
    <text x="188.5" y="30" font-size="12px" font-family="Consolas,Monaco,Andale Mono,monospace" fill="#4D4E53" text-anchor="middle" alignment-baseline="middle">Node</text>
  </a>
  <polyline points="226,25  236,20  236,30  226,25" stroke="#D4DDE4" fill="none"></polyline>
  <line x1="236" y1="25" x2="266" y2="25" stroke="#D4DDE4"></line>
  <a xlink:href="https://developer.mozilla.org/en-US/docs/Web/API/Element" target="_top">
    <rect x="266" y="1" width="75" height="50" fill="#fff" stroke="#D4DDE4" stroke-width="2px"></rect>
    <text x="303.5" y="30" font-size="12px" font-family="Consolas,Monaco,Andale Mono,monospace" fill="#4D4E53" text-anchor="middle" alignment-baseline="middle">Element</text>
  </a>
  <polyline points="341,25  351,20  351,30  341,25" stroke="#D4DDE4" fill="none"></polyline>
  <line x1="351" y1="25" x2="381" y2="25" stroke="#D4DDE4"></line>
  <a xlink:href="https://developer.mozilla.org/en-US/docs/Web/API/HTMLElement" target="_top">
    <rect x="381" y="1" width="110" height="50" fill="#fff" stroke="#D4DDE4" stroke-width="2px"></rect>
    <text x="436" y="30" font-size="12px" font-family="Consolas,Monaco,Andale Mono,monospace" fill="#4D4E53" text-anchor="middle" alignment-baseline="middle">HTMLElement</text>
  </a>
  <polyline points="491,25  501,20  501,30  491,25" stroke="#D4DDE4" fill="none"></polyline>
  <line x1="501" y1="25" x2="509" y2="25" stroke="#D4DDE4"></line>
  <line x1="509" y1="25" x2="509" y2="90" stroke="#D4DDE4"></line>
  <line x1="509" y1="90" x2="492" y2="90" stroke="#D4DDE4"></line>
  <a xlink:href="https://developer.mozilla.org/en-US/docs/Web/API/HTMLDivElement" target="_top">
    <rect x="351" y="65" width="140" height="50" fill="#F4F7F8" stroke="#D4DDE4" stroke-width="2px"></rect>
    <text x="421" y="94" font-size="12px" font-family="Consolas,Monaco,Andale Mono,monospace" fill="#4D4E53" text-anchor="middle" alignment-baseline="middle">HTMLDivElement</text>
  </a>
</svg>
