<?xml version="1.0" standalone="no"?><!DOCTYPE svg PUBLIC "-//W3C//DTD SVG 1.1//EN" "http://www.w3.org/Graphics/SVG/1.1/DTD/svg11.dtd"><svg t="1570766298594" class="icon" viewBox="0 0 1024 1024" version="1.1" xmlns="http://www.w3.org/2000/svg" xmlns:xlink="http://www.w3.org/1999/xlink" width="200" height="200"><defs><style type="text/css"></style></defs><path d="M939.664 148.352C885.248 93.968 812.944 64 736 64s-138.592 27.632-192.976 82.016l-0.096 0.08-0.032 0.016L512 185.04l-30.912-36.576-0.096-0.096-0.016-0.016C426.576 93.968 364.928 64 288 64S138.752 93.968 84.352 148.352C29.952 202.752 0 275.072 0 352c0 76.896 29.92 149.168 84.256 203.568L466.56 941.056a63.952 63.952 0 0 0 90.88 0l382.288-385.472A286.176 286.176 0 0 0 1024 352c0-76.928-29.952-149.248-84.336-203.648z" fill="#d81e06"></path></svg>
