<svg xmlns="http://www.w3.org/2000/svg" viewBox="0 0 340.72 270.58"><title>juejin</title><g id="图层_2" data-name="图层 2"><g id="图层_2-2" data-name="图层 2"><path class="cls-1" d="M340.13,136.49c-.67,2-2.09,2.72-3.23,3.62q-28.77,22.75-57.59,45.46-52.06,41.09-104.07,82.25c-3.83,3.05-6.33,3-10.16-.05Q112,225.52,58.61,183.6,32.45,163,6.3,142.34a42,42,0,0,0-4.1-2.76c-2.09-1.28-2.34-2.48-.26-4.11,5.88-4.62,11.78-9.23,17.49-14.07,2.44-2.07,3.88-.58,5.58.76q33.3,26.25,66.61,52.52,24.66,19.45,49.3,38.93c8.44,6.66,17,13.24,25.29,20,2.7,2.2,4.59,2.66,7.66.22Q231.41,188,289.19,142.52c8.73-6.9,17.6-13.63,26.31-20.55,2.11-1.68,3.7-2.17,6-.22,5.47,4.6,11.17,9,16.78,13.4C338.94,135.67,339.64,136.13,340.13,136.49Z"/><path class="cls-1" d="M272.38,82.63a15.36,15.36,0,0,1-2.18,2.83q-46,36.18-92.17,72.24c-7.74,6-8.07,6-15.92-.11q-46-36-91.81-72.22c-2.3-1.81-2.48-3,0-4.87,5.31-4,10.63-8,15.51-12.52,3.14-2.89,5.1-1.48,7.61.5,23.72,18.76,47.57,37.37,71.15,56.31,4.21,3.38,6.9,3.6,11.22.12,24-19.36,48.38-38.37,72.59-57.54,1.53-1.22,2.68-2.21,4.68-.53,5.74,4.8,11.65,9.39,17.48,14.07C271.16,81.4,271.7,82,272.38,82.63Z"/><path class="cls-1" d="M170.31.6c1.15.8,2.27,1.48,3.29,2.28,9.11,7.2,18.14,14.51,27.36,21.57,3,2.3,3,3.42-.1,5.75-9.67,7.23-18.73,15.27-28.66,22.19-1.33.92-1.88,1.53-3.62.28-10.1-7.23-19.44-15.41-29.32-22.89-2.47-1.87-2.34-3.19-.07-5,9.66-7.57,19.27-15.2,28.91-22.8A24.56,24.56,0,0,1,170.31.6Z"/></g></g></svg>
