<?xml version="1.0" encoding="utf-8"?>
<!-- Generator: Adobe Illustrator 22.1.0, SVG Export Plug-In . SVG Version: 6.00 Build 0)  -->
<svg version="1.1" xmlns="http://www.w3.org/2000/svg" xmlns:xlink="http://www.w3.org/1999/xlink" x="0px" y="0px"
	 viewBox="0 0 512 512" style="enable-background:new 0 0 512 512;" xml:space="preserve">
<style type="text/css">
	.st0{fill:#FFFFFF;}
	.st1{display:none;}
	.st2{font-family:'DIN-Bold';}
	.st3{font-size:133.0306px;}
	.st4{display:inline;fill:#FFFFFF;}
	.st5{display:inline;}
</style>
<g id="图层_1">
	<rect class="st0" width="512" height="512"/>
	<rect class="st1" width="512" height="512"/>
	<g>
		<path class="st0" d="M256,496c-64.1,0-124.4-25-169.7-70.3C41,380.4,16,320.1,16,256S41,131.6,86.3,86.3S191.9,16,256,16
			s124.4,25,169.7,70.3C471,131.6,496,191.9,496,256s-25,124.4-70.3,169.7C380.4,471,320.1,496,256,496z"/>
		<path d="M256,32c30.3,0,59.6,5.9,87.2,17.6c26.7,11.3,50.6,27.4,71.2,48c20.6,20.6,36.7,44.5,48,71.2
			c11.7,27.6,17.6,56.9,17.6,87.2s-5.9,59.6-17.6,87.2c-11.3,26.7-27.4,50.6-48,71.2c-20.6,20.6-44.5,36.7-71.2,48
			C315.6,474.1,286.3,480,256,480s-59.6-5.9-87.2-17.6c-26.7-11.3-50.6-27.4-71.2-48c-20.6-20.6-36.7-44.5-48-71.2
			C37.9,315.6,32,286.3,32,256s5.9-59.6,17.6-87.2c11.3-26.7,27.4-50.6,48-71.2c20.6-20.6,44.5-36.7,71.2-48
			C196.4,37.9,225.7,32,256,32 M256,0C114.6,0,0,114.6,0,256s114.6,256,256,256s256-114.6,256-256S397.4,0,256,0L256,0z"/>
	</g>
	<g>
		<circle cx="256" cy="256" r="16"/>
	</g>
	<text transform="matrix(0.9678 0 0 1 198.8984 215.687)" class="st2 st3">W</text>
	<text transform="matrix(0.9678 0 0 1 211.9019 390.5967)" class="st2 st3">H</text>
</g>
<g id="图层_2" class="st1">
	<rect class="st4" width="512" height="512"/>
	<rect class="st5" width="512" height="512"/>
	<g class="st5">
		<path d="M256,496c-64.1,0-124.4-25-169.7-70.3C41,380.4,16,320.1,16,256S41,131.6,86.3,86.3S191.9,16,256,16s124.4,25,169.7,70.3
			C471,131.6,496,191.9,496,256s-25,124.4-70.3,169.7C380.4,471,320.1,496,256,496z"/>
		<path class="st0" d="M256,32c30.3,0,59.6,5.9,87.2,17.6c26.7,11.3,50.6,27.4,71.2,48c20.6,20.6,36.7,44.5,48,71.2
			c11.7,27.6,17.6,56.9,17.6,87.2s-5.9,59.6-17.6,87.2c-11.3,26.7-27.4,50.6-48,71.2c-20.6,20.6-44.5,36.7-71.2,48
			C315.6,474.1,286.3,480,256,480s-59.6-5.9-87.2-17.6c-26.7-11.3-50.6-27.4-71.2-48c-20.6-20.6-36.7-44.5-48-71.2
			C37.9,315.6,32,286.3,32,256s5.9-59.6,17.6-87.2c11.3-26.7,27.4-50.6,48-71.2c20.6-20.6,44.5-36.7,71.2-48
			C196.4,37.9,225.7,32,256,32 M256,0C114.6,0,0,114.6,0,256s114.6,256,256,256s256-114.6,256-256S397.4,0,256,0L256,0z"/>
	</g>
	<g class="st5">
		<circle class="st0" cx="256" cy="256" r="16"/>
	</g>
	<text transform="matrix(0.9678 0 0 1 198.8984 215.687)" class="st4 st2 st3">W</text>
	<text transform="matrix(0.9678 0 0 1 211.9019 390.5967)" class="st4 st2 st3">H</text>
</g>
</svg>
